<svg width="512" height="512" viewBox="0 0 512 512" fill="none" xmlns="http://www.w3.org/2000/svg">
<rect width="512" height="512" fill="#A87B62"/>
<path d="M76.2188 262.656C76.2188 245.248 80.2294 229.632 88.2507 215.808C96.4427 201.984 107.451 191.232 121.275 183.552C135.269 175.701 150.544 171.776 167.099 171.776C186.043 171.776 202.853 176.469 217.531 185.856C232.379 195.072 243.131 208.213 249.787 225.28H214.715C210.107 215.893 203.707 208.896 195.515 204.288C187.323 199.68 177.851 197.376 167.099 197.376C155.323 197.376 144.827 200.021 135.611 205.312C126.395 210.603 119.141 218.197 113.851 228.096C108.731 237.995 106.171 249.515 106.171 262.656C106.171 275.797 108.731 287.317 113.851 297.216C119.141 307.115 126.395 314.795 135.611 320.256C144.827 325.547 155.323 328.192 167.099 328.192C177.851 328.192 187.323 325.888 195.515 321.28C203.707 316.672 210.107 309.675 214.715 300.288H249.787C243.131 317.355 232.379 330.496 217.531 339.712C202.853 348.928 186.043 353.536 167.099 353.536C150.373 353.536 135.099 349.696 121.275 342.016C107.451 334.165 96.4427 323.328 88.2507 309.504C80.2294 295.68 76.2188 280.064 76.2188 262.656Z" fill="white"/>
<path d="M426.027 174.08V352H396.843V274.176H313.131V352H283.947V174.08H313.131V250.368H396.843V174.08H426.027Z" fill="white"/>
</svg>
